<svg width="30" height="30" viewBox="0 0 30 30" fill="none" xmlns="http://www.w3.org/2000/svg">
<path d="M9.78807 12.5781C10.4842 12.5781 11.0491 12.0181 11.0491 11.3281V6.45312C11.0491 4.27375 12.8379 2.5 15.0365 2.5C17.2351 2.5 19.0245 4.27375 19.0245 6.45312V11.3281C19.0245 12.0181 19.5888 12.5781 20.2855 12.5781C20.9816 12.5781 21.5466 12.0181 21.5466 11.3281V6.45312C21.5472 2.895 18.6266 0 15.0365 0C11.4476 0 8.52704 2.895 8.52704 6.45312V11.3281C8.52704 12.0181 9.09198 12.5781 9.78807 12.5781Z" fill="#EFEFF0"/>
<path d="M29.5019 9.76938H22.8083V11.3281C22.8083 12.7069 21.6771 13.8281 20.2862 13.8281C18.8953 13.8281 17.7642 12.7069 17.7642 11.3281V9.76938H12.3108V11.3281C12.3108 12.7069 11.1797 13.8281 9.78877 13.8281C8.39785 13.8281 7.2667 12.7069 7.2667 11.3281V9.76938H0.498114C0.150069 9.76938 -0.0649371 10.0413 0.0176605 10.3763L4.43001 28.1869C4.69609 29.1881 5.75914 30 6.80327 30H23.1967C24.2421 30 25.3039 29.1881 25.5712 28.1869L29.9823 10.3763C30.0649 10.0406 29.8505 9.76938 29.5019 9.76938Z" fill="#EFEFF0"/>
</svg>
